<svg xmlns="http://www.w3.org/2000/svg" viewBox="0 0 31.012 31.012">
  <path d="M25.11 21.51c-.124 0-.247-.045-.343-.136l-5.754-5.398c-.2-.188-.21-.505-.022-.706.19-.203.505-.212.708-.022l5.754 5.398c.2.188.21.505.022.706-.1.105-.23.158-.365.158zM5.902 21.51c-.133 0-.266-.053-.365-.158-.19-.2-.18-.518.022-.706l5.755-5.398c.202-.188.52-.18.707.022.19.2.18.518-.022.706l-5.756 5.398c-.096.09-.22.136-.342.136z"/>
  <path d="M28.512 26.53H2.5c-1.378 0-2.5-1.122-2.5-2.5V6.98c0-1.38 1.122-2.5 2.5-2.5h26.012c1.378 0 2.5 1.12 2.5 2.5V24.03c0 1.378-1.122 2.5-2.5 2.5zM2.5 5.48c-.827 0-1.5.673-1.5 1.5V24.03c0 .826.673 1.5 1.5 1.5h26.012c.827 0 1.5-.674 1.5-1.5V6.98c0-.827-.673-1.5-1.5-1.5H2.5z"/>
  <path d="M15.506 18.018c-.665 0-1.33-.22-1.836-.662L.83 6.156C.622 5.973.6 5.657.78 5.448c.184-.21.5-.228.707-.05l12.84 11.2c.64.558 1.72.558 2.357 0L29.508 5.42c.207-.182.522-.162.706.047.18.21.16.524-.048.706L17.342 17.355c-.507.442-1.17.663-1.836.663z"/>
</svg>
