<svg xmlns="http://www.w3.org/2000/svg" viewBox="0 0 60 60">
  <path d="M30 26c3.86 0 7-3.14 7-7s-3.14-7-7-7-7 3.14-7 7 3.14 7 7 7zm0-12c2.757 0 5 2.243 5 5s-2.243 5-5 5-5-2.243-5-5 2.243-5 5-5z"/>
  <path d="M29.823 54.757L45.163 32.6c5.755-7.67 4.923-20.28-1.78-26.982C39.76 1.995 34.945 0 29.823 0s-9.938 1.995-13.56 5.617C9.56 12.32 8.728 24.927 14.46 32.57l15.363 22.187zM17.677 7.03C20.922 3.788 25.235 2 29.823 2s8.9 1.787 12.146 5.03c6.05 6.05 6.794 17.438 1.572 24.4l-13.72 19.813L16.083 31.4c-5.2-6.932-4.454-18.32 1.595-24.37z"/>
  <path d="M42.117 43.007c-.55-.067-1.046.327-1.11.876s.328 1.046.876 1.11C52.4 46.23 58 49.567 58 51.5c0 2.714-10.652 6.5-28 6.5S2 54.214 2 51.5c0-1.933 5.6-5.27 16.117-6.507.548-.064.94-.562.876-1.11-.065-.55-.56-.945-1.11-.876C7.353 44.247 0 47.74 0 51.5 0 55.724 10.305 60 30 60s30-4.276 30-8.5c0-3.76-7.354-7.253-17.883-8.493z"/>
</svg>
