<svg xmlns="http://www.w3.org/2000/svg" viewBox="0 0 64 64" width="512" height="512">
  <g fill="#e7e7e7">
    <path d="M50.63 26.226c-.13-1.394-.03-5.182 3.598-10.45.274-.397.225-.933-.116-1.274-1.48-1.48-2.396-2.413-3.038-3.066-.845-.862-1.23-1.254-1.795-1.766-.378-.34-.95-.345-1.33-.013-6.325 5.504-13.35 16.877-12.333 30.81.595 8.182 6.563 14.12 14.19 14.12 7.825 0 14.192-6.365 14.192-14.19 0-7.55-5.926-13.743-13.37-14.17zm-.824 26.362c-6.55 0-11.677-5.158-12.195-12.265-1.143-15.672 8.173-25.85 10.987-28.546.274.27.588.59 1.05 1.06.556.566 1.318 1.342 2.47 2.498-4.405 6.787-3.574 11.623-3.21 12.316.173.33.528.552.9.552 6.723 0 12.192 5.47 12.192 12.194 0 6.722-5.47 12.192-12.194 12.192zM15.114 26.226c-.13-1.39-.035-5.175 3.598-10.45.274-.397.225-.933-.116-1.274-1.477-1.477-2.392-2.41-3.033-3.062-.848-.864-1.235-1.257-1.8-1.77-.376-.34-.946-.344-1.327-.014C6.11 15.16-.916 26.53.1 40.468c.597 8.18 6.565 14.12 14.19 14.12 7.828 0 14.195-6.366 14.195-14.192 0-7.55-5.926-13.744-13.37-14.17zm-.823 26.362c-6.546 0-11.677-5.158-12.197-12.266-1.14-15.673 8.175-25.85 10.99-28.545.275.27.59.59 1.052 1.063.556.566 1.317 1.34 2.467 2.495-4.405 6.788-3.574 11.623-3.21 12.315.173.33.528.552.9.552 6.723 0 12.193 5.47 12.193 12.194 0 6.722-5.47 12.192-12.194 12.192z"/>
  </g>
</svg>
