<svg xmlns="http://www.w3.org/2000/svg" viewBox="0 0 29.735 29.735">
  <path d="M23.895 29.733c-1.237 0-2.73-.31-4.373-.93-3.603-1.358-7.52-4.042-11.035-7.556C4.973 17.733 2.29 13.814.93 10.21-.307 6.935-.31 4.247.92 3.017c.178-.178.36-.368.545-.563C2.588 1.274 3.887-.066 5.538.006c1.16.048 2.283.768 3.435 2.198 3.396 4.225 1.865 5.73.093 7.477l-.314.31c-.29.29-.84 1.633 4.26 6.73 1.666 1.666 3.084 2.884 4.217 3.62.714.465 1.99 1.165 2.513.642l.315-.318c1.744-1.77 3.25-3.296 7.474.1 1.43 1.15 2.15 2.272 2.198 3.433.07 1.682-1.27 2.954-2.453 4.076-.194.185-.384.364-.56.54-.614.613-1.59.92-2.822.92zM5.42 1.003c-1.195 0-2.275 1.135-3.23 2.14-.193.2-.38.398-.563.58-.916.916-.822 3.324.238 6.135 1.31 3.473 3.913 7.267 7.33 10.683s7.208 6.02 10.68 7.33c2.81 1.06 5.22 1.152 6.135.235.183-.182.378-.368.578-.558 1.028-.977 2.193-2.083 2.143-3.31-.034-.844-.648-1.75-1.825-2.696-3.52-2.827-4.503-1.827-6.135-.175l-.32.323c-.777.78-2.044.61-3.766-.51-1.19-.774-2.664-2.037-4.38-3.75-4.23-4.232-5.584-6.82-4.26-8.146l.32-.316c1.658-1.632 2.658-2.617-.17-6.137-.947-1.176-1.854-1.79-2.697-1.826l-.078-.002zM24.07 12.29c-.063 0-.126-.012-.188-.037-.256-.104-.38-.395-.275-.65.636-1.568.272-3.355-.924-4.552-1.23-1.228-3.118-1.57-4.703-.857-.25.113-.548.003-.66-.25-.115-.25-.004-.547.248-.66 1.96-.888 4.3-.46 5.822 1.062 1.48 1.48 1.93 3.692 1.143 5.634-.078.19-.266.31-.463.31z"/>
  <path d="M28.534 14.102c-.063 0-.126-.012-.188-.037-.257-.104-.38-.395-.275-.65 1.366-3.367.59-7.202-1.98-9.77-2.638-2.64-6.695-3.38-10.095-1.842-.252.11-.548.002-.662-.25-.113-.253-.002-.55.25-.663C19.36-.816 23.866.005 26.797 2.936c2.854 2.854 3.718 7.114 2.2 10.854-.078.194-.266.312-.463.312z"/>
</svg>
